<?xml version="1.0" encoding="UTF-8" standalone="no"?>
<svg
   xmlns:dc="http://purl.org/dc/elements/1.1/"
   xmlns:cc="http://creativecommons.org/ns#"
   xmlns:rdf="http://www.w3.org/1999/02/22-rdf-syntax-ns#"
   xmlns:svg="http://www.w3.org/2000/svg"
   xmlns="http://www.w3.org/2000/svg"
   xmlns:sodipodi="http://sodipodi.sourceforge.net/DTD/sodipodi-0.dtd"
   xmlns:inkscape="http://www.inkscape.org/namespaces/inkscape"
   width="297mm"
   height="210mm"
   viewBox="0 0 297 210"
   version="1.1"
   id="svg8"
   inkscape:version="1.0 (4035a4fb49, 2020-05-01)"
   sodipodi:docname="Logo.svg">
  <defs
     id="defs2" />
  <sodipodi:namedview
     inkscape:guide-bbox="true"
     showguides="true"
     id="base"
     pagecolor="#ffffff"
     bordercolor="#666666"
     borderopacity="1.0"
     inkscape:pageopacity="0.0"
     inkscape:pageshadow="2"
     inkscape:zoom="1.0875"
     inkscape:cx="497.46107"
     inkscape:cy="341.62918"
     inkscape:document-units="mm"
     inkscape:current-layer="layer1"
     inkscape:document-rotation="0"
     showgrid="false"
     objecttolerance="1"
     guidetolerance="1"
     inkscape:window-width="1366"
     inkscape:window-height="705"
     inkscape:window-x="-8"
     inkscape:window-y="-8"
     inkscape:window-maximized="1" />
  <metadata
     id="metadata5">
    <rdf:RDF>
      <cc:Work
         rdf:about="">
        <dc:format>image/svg+xml</dc:format>
        <dc:type
           rdf:resource="http://purl.org/dc/dcmitype/StillImage" />
        <dc:title></dc:title>
      </cc:Work>
    </rdf:RDF>
  </metadata>
  <g
     inkscape:label="Layer 1"
     inkscape:groupmode="layer"
     id="layer1">
    <rect
       style="opacity:0.660131;fill:#2b2b2b;fill-opacity:0;stroke-width:0.264583"
       id="rect28"
       width="124.88333"
       height="112.97708"
       x="38.674637"
       y="19.255405" />
    <text
       xml:space="preserve"
       style="font-size:17.0409px;line-height:1.25;font-family:'Good Sunday';-inkscape-font-specification:'Good Sunday';fill:#e2142d;fill-opacity:1;stroke-width:0.228226"
       x="101.5836"
       y="99.397202"
       id="text855"
       transform="scale(1.0038175,0.99619702)"><tspan
         sodipodi:role="line"
         x="101.5836"
         y="99.397202"
         style="font-size:17.0409px;fill:#e2142d;fill-opacity:1;stroke-width:0.228226"
         id="tspan859">GAMES</tspan></text>
    <text
       xml:space="preserve"
       style="font-size:18.4254px;line-height:1.25;font-family:'Good Sunday';-inkscape-font-specification:'Good Sunday';fill:#e2142d;fill-opacity:1;stroke-width:0.287895"
       x="102.2974"
       y="83.747055"
       id="text867"
       transform="scale(0.99875624,1.0012453)"><tspan
         sodipodi:role="line"
         id="tspan865"
         x="102.2974"
         y="83.747055"
         style="font-size:18.4254px;fill:#e2142d;fill-opacity:1;stroke-width:0.287895">COMIC</tspan></text>
    <path
       style="fill:none;stroke:#000000;stroke-width:1.69627;stroke-linecap:round;stroke-linejoin:round;stroke-miterlimit:4;stroke-dasharray:none;stroke-opacity:1"
       d="m 69.012172,73.397014 20.25026,-0.103291 c 0,0 2.1732,0.619774 1.97564,3.202167 -0.19757,2.58239 -1.77808,2.479093 -1.77808,2.479093 l -7.40863,0.103291 c 0,0 -1.97564,0.619773 -1.28416,3.821939"
       id="path871" />
    <path
       style="fill:none;stroke:#000000;stroke-width:1.486;stroke-linecap:round;stroke-linejoin:round;stroke-miterlimit:4;stroke-dasharray:none;stroke-opacity:1"
       d="m 80.450342,81.525876 -10.94196,0.09915 c 0,0 -3.7459,1.487273 -3.94306,5.15588 -0.19715,3.668606 0,5.84994 0,5.84994 0,0 0.88719,4.362669 5.61885,4.858427 4.73166,0.495758 6.60461,-4.263517 6.60461,-4.263517 l 0.19715,-0.793213 h 4.63309 c 0,0 -0.0986,4.362667 6.30888,4.957577 6.40746,0.594911 6.60461,-6.643153 6.60461,-6.643153 l 0.0986,-4.362666 c 0,0 -0.78861,-4.362667 -5.22454,-5.05673 z"
       id="path873" />
    <path
       style="fill:none;stroke:#000000;stroke-width:1.378;stroke-linecap:round;stroke-linejoin:round;stroke-miterlimit:4;stroke-dasharray:none;stroke-opacity:1"
       d="m 65.613062,88.466482 c 0,0 1.2121,-3.371152 4.84839,-3.569454 3.63629,-0.198303 19.49456,0 19.49456,0 0,0 4.24234,-0.09915 5.45444,3.966062"
       id="path929" />
    <path
       id="path931"
       d="m 65.712212,85.264294 c 0,0 1.2121,-3.620536 4.84839,-3.833507 3.63629,-0.212973 19.49456,0 19.49456,0 0,0 4.24234,-0.106485 5.45444,4.259454"
       style="fill:none;stroke:#000000;stroke-width:1.428;stroke-linecap:round;stroke-linejoin:round;stroke-miterlimit:4;stroke-dasharray:none;stroke-opacity:1" />
    <path
       style="fill:none;stroke:#000000;stroke-width:1.565;stroke-linecap:round;stroke-linejoin:round;stroke-miterlimit:4;stroke-dasharray:none;stroke-opacity:1"
       d="m 71.911532,88.069876 0.0991,5.651637 v -2.875394 h 2.8754 -5.84994"
       id="path933" />
    <path
       style="fill:none;stroke:#000000;stroke-width:1.675;stroke-linecap:round;stroke-linejoin:round;stroke-miterlimit:4;stroke-dasharray:none;stroke-opacity:1"
       d="m 78.380752,88.962239 h 4.43745"
       id="path935" />
    <ellipse
       style="opacity:0.660131;fill:#000000;fill-opacity:1;stroke:#000000;stroke-width:0.435672;stroke-linecap:round;stroke-linejoin:round;stroke-miterlimit:4;stroke-dasharray:none;stroke-opacity:1"
       id="path937"
       cx="89.263054"
       cy="88.466484"
       rx="0.86202812"
       ry="0.862028" />
    <ellipse
       ry="0.862028"
       rx="0.86202812"
       cy="90.746971"
       cx="91.741844"
       id="ellipse939"
       style="opacity:0.660131;fill:#000000;fill-opacity:1;stroke:#000000;stroke-width:0.435672;stroke-linecap:round;stroke-linejoin:round;stroke-miterlimit:4;stroke-dasharray:none;stroke-opacity:1" />
    <ellipse
       ry="0.862028"
       rx="0.86202812"
       cy="90.846123"
       cx="86.784264"
       id="ellipse941"
       style="opacity:0.660131;fill:#000000;fill-opacity:1;stroke:#000000;stroke-width:0.435672;stroke-linecap:round;stroke-linejoin:round;stroke-miterlimit:4;stroke-dasharray:none;stroke-opacity:1" />
    <ellipse
       style="opacity:0.660131;fill:#000000;fill-opacity:1;stroke:#000000;stroke-width:0.435672;stroke-linecap:round;stroke-linejoin:round;stroke-miterlimit:4;stroke-dasharray:none;stroke-opacity:1"
       id="ellipse943"
       cx="89.263054"
       cy="93.324913"
       rx="0.86202812"
       ry="0.862028" />
    <ellipse
       style="opacity:0.660131;fill:#2b2b2b;fill-opacity:1;stroke:#2b2b2b;stroke-width:0.36499;stroke-linecap:round;stroke-linejoin:round;stroke-miterlimit:4;stroke-dasharray:none;stroke-opacity:1"
       id="path945"
       cx="71.911537"
       cy="90.846115"
       rx="4.2685208"
       ry="4.0702181" />
    <ellipse
       ry="4.0702181"
       rx="4.2685208"
       cy="90.945267"
       cx="89.263054"
       id="ellipse947"
       style="opacity:0.660131;fill:#2b2b2b;fill-opacity:1;stroke:#2b2b2b;stroke-width:0.36499;stroke-linecap:round;stroke-linejoin:round;stroke-miterlimit:4;stroke-dasharray:none;stroke-opacity:1" />
    <g
       style="font-size:10.1819px;line-height:1.25;font-family:'Good Sunday';-inkscape-font-specification:'Good Sunday';fill:#3535b9;fill-opacity:1;stroke:#3535b9;stroke-width:0.21;stroke-miterlimit:4;stroke-dasharray:none;stroke-opacity:1"
       id="text41"
       transform="matrix(0.9961383,0,0,1.0038767,7.1655816,12.119801)"
       aria-label="SITE
">
      <path
         id="path53"
         style="font-style:normal;font-variant:normal;font-weight:normal;font-stretch:normal;font-size:6.10919px;font-family:'Hillstown Sans';-inkscape-font-specification:'Hillstown Sans';fill:#3535b9;fill-opacity:1;stroke:#3535b9;stroke-width:0.21;stroke-miterlimit:4;stroke-dasharray:none;stroke-opacity:1"
         d="m 96.502559,93.774131 c 0.714775,0 1.246274,-0.281023 1.545625,-0.812522 0.122183,-0.232149 0.201603,-0.60481 0.04276,-0.965252 -0.103856,-0.232149 -0.342115,-0.5315 -0.879723,-0.653684 -0.189385,-0.04276 -0.372661,-0.0672 -0.555937,-0.09775 -0.366551,-0.04887 -0.714775,-0.103856 -0.90416,-0.274913 -0.122184,-0.103856 -0.14662,-0.323787 -0.07331,-0.525391 0.122184,-0.311568 0.427643,-0.494844 0.83085,-0.494844 0.409315,0 0.647574,0.250477 0.763648,0.427643 0.05498,0.09164 0.171058,0.128293 0.274914,0.09164 l 0.158839,-0.06109 0.183276,-0.0672 c 0.09164,-0.03055 0.134402,-0.140511 0.08553,-0.22604 -0.158839,-0.305459 -0.592591,-0.910269 -1.466205,-0.910269 -0.849178,0 -1.350131,0.500953 -1.527298,0.971361 -0.189385,0.507063 -0.07942,1.038562 0.274914,1.35624 0.360442,0.311569 0.83085,0.384879 1.289039,0.45208 0.164948,0.02444 0.336005,0.04887 0.500953,0.08553 0.128293,0.03055 0.299351,0.09775 0.360443,0.232149 0.04276,0.09775 0.02444,0.22604 -0.01222,0.299351 -0.103856,0.183275 -0.305459,0.427643 -0.891941,0.427643 -0.488736,0 -0.733103,-0.293241 -0.843069,-0.488735 -0.05498,-0.09164 -0.164948,-0.134403 -0.268804,-0.103857 l -0.354333,0.09775 c -0.09164,0.03055 -0.140511,0.134403 -0.103856,0.22604 0.189385,0.421535 0.67812,1.014126 1.570062,1.014126 z" />
      <path
         id="path55"
         style="font-style:normal;font-variant:normal;font-weight:normal;font-stretch:normal;font-size:6.10919px;font-family:'Hillstown Sans';-inkscape-font-specification:'Hillstown Sans';fill:#3535b9;fill-opacity:1;stroke:#3535b9;stroke-width:0.21;stroke-miterlimit:4;stroke-dasharray:none;stroke-opacity:1"
         d="m 98.660248,89.412169 v 4.087048 c 0,0.09775 0.07942,0.177167 0.171057,0.177167 h 0.390989 c 0.09775,0 0.177166,-0.07942 0.177166,-0.177167 v -4.087048 c 0,-0.09775 -0.07942,-0.171057 -0.177166,-0.171057 h -0.390989 c -0.09164,0 -0.171057,0.07331 -0.171057,0.171057 z" />
      <path
         id="path57"
         style="font-style:normal;font-variant:normal;font-weight:normal;font-stretch:normal;font-size:6.10919px;font-family:'Hillstown Sans';-inkscape-font-specification:'Hillstown Sans';fill:#3535b9;fill-opacity:1;stroke:#3535b9;stroke-width:0.21;stroke-miterlimit:4;stroke-dasharray:none;stroke-opacity:1"
         d="m 102.74567,89.222784 h -2.871316 c -0.07331,0 -0.128293,0.06109 -0.128293,0.128293 v 0.488736 c 0,0.07331 0.05498,0.128293 0.128293,0.128293 h 0.977466 c 0.0489,0 0.0916,0.04276 0.0916,0.09164 v 3.47002 c 0,0.07942 0.0611,0.146621 0.14662,0.146621 h 0.44597 c 0.0794,0 0.14052,-0.0672 0.14052,-0.146621 v -3.47002 c 0,-0.04887 0.0428,-0.09164 0.0916,-0.09164 h 0.97747 c 0.0733,0 0.1283,-0.05498 0.1283,-0.128293 v -0.488736 c 0,-0.0672 -0.055,-0.128293 -0.1283,-0.128293 z" />
      <path
         id="path59"
         style="font-style:normal;font-variant:normal;font-weight:normal;font-stretch:normal;font-size:6.10919px;font-family:'Hillstown Sans';-inkscape-font-specification:'Hillstown Sans';fill:#3535b9;fill-opacity:1;stroke:#3535b9;stroke-width:0.21;stroke-miterlimit:4;stroke-dasharray:none;stroke-opacity:1"
         d="m 106.14754,89.809267 v -0.421534 c 0,-0.09164 -0.0733,-0.164949 -0.15884,-0.164949 h -2.47422 c -0.0855,0 -0.15884,0.07331 -0.15884,0.164949 l -0.006,4.123703 c 0,0.09164 0.0733,0.164948 0.16495,0.164948 h 2.47422 c 0.0855,0 0.15884,-0.07331 0.15884,-0.164948 v -0.421534 c 0,-0.08553 -0.0733,-0.158839 -0.15884,-0.158839 h -1.74112 c -0.0916,0 -0.16495,-0.07331 -0.16495,-0.164948 v -0.733103 c 0,-0.09164 0.0733,-0.164948 0.16495,-0.164948 h 1.16685 c 0.0855,0 0.15884,-0.07331 0.15884,-0.158839 v -0.421534 c 0,-0.09164 -0.0733,-0.164948 -0.15884,-0.164948 h -1.16685 c -0.0916,0 -0.16495,-0.07331 -0.16495,-0.158839 v -0.83085 c 0,-0.09164 0.0733,-0.164948 0.16495,-0.164948 h 1.74112 c 0.0855,0 0.15884,-0.07331 0.15884,-0.158839 z" />
    </g>
    <g
       style="font-size:6.42243px;line-height:1.6;font-family:'Good Sunday';-inkscape-font-specification:'Good Sunday';letter-spacing:1.0704px;fill:#3535b9;fill-opacity:1;stroke:#3535b9;stroke-width:0.21;stroke-miterlimit:4;stroke-dasharray:none;stroke-opacity:1"
       id="text47"
       transform="matrix(1.0114063,0,0,0.98872235,7.0853216,12.173309)"
       aria-label="GAMING">
      <path
         id="path885"
         style="font-style:normal;font-variant:normal;font-weight:normal;font-stretch:normal;font-size:6.42243px;font-family:'Hillstown Sans';-inkscape-font-specification:'Hillstown Sans';fill:#3535b9;fill-opacity:1;stroke:#3535b9;stroke-width:0.21;stroke-miterlimit:4;stroke-dasharray:none;stroke-opacity:1"
         d="m 113.57423,92.623185 h -1.89462 c -0.10918,0 -0.1991,0.08991 -0.1991,0.199095 v 0.385346 c 0,0.109181 0.0899,0.199096 0.1991,0.199096 h 1.13677 c 0.0578,0 0.0963,0.0578 0.0835,0.109181 -0.17983,0.584441 -0.59086,0.911985 -1.18815,0.911985 -0.77711,0 -1.41293,-0.73858 -1.41293,-1.63772 0,-0.89914 0.63582,-1.631297 1.41293,-1.631297 0.27617,0 0.53306,0.08349 0.75785,0.250475 0.0835,0.06422 0.19909,0.0578 0.26332,-0.01927 l 0.26974,-0.282586 c 0.0771,-0.08349 0.0707,-0.218363 -0.0257,-0.295432 -0.36608,-0.282587 -0.80923,-0.436725 -1.26522,-0.436725 -1.21384,0 -2.19647,1.08539 -2.19647,2.414833 0,1.335866 0.98263,2.421256 2.19647,2.421256 1.22669,0 2.02949,-0.911985 2.0616,-2.331342 v -0.0578 c 0,-0.109181 -0.0899,-0.199095 -0.19909,-0.199095 z" />
      <path
         id="path887"
         style="font-style:normal;font-variant:normal;font-weight:normal;font-stretch:normal;font-size:6.42243px;font-family:'Hillstown Sans';-inkscape-font-specification:'Hillstown Sans';fill:#3535b9;fill-opacity:1;stroke:#3535b9;stroke-width:0.21;stroke-miterlimit:4;stroke-dasharray:none;stroke-opacity:1"
         d="m 118.13953,95.108665 h 0.48169 c 0.0963,0 0.16056,-0.08991 0.13487,-0.179828 l -1.26522,-4.386519 c -0.0193,-0.0578 -0.0707,-0.09634 -0.13487,-0.09634 h -0.86061 c -0.0642,0 -0.12203,0.03853 -0.13487,0.09634 l -1.26522,4.386519 c -0.0257,0.08991 0.0385,0.179828 0.13487,0.179828 h 0.48168 c 0.0642,0 0.11561,-0.04496 0.13488,-0.102758 l 0.21194,-0.745002 c 0.0193,-0.0578 0.0706,-0.102759 0.13487,-0.102759 h 1.46431 c 0.0578,0 0.1156,0.04496 0.13487,0.102759 l 0.21194,0.745002 c 0.0193,0.0578 0.0707,0.102758 0.13487,0.102758 z m -1.79186,-1.843237 0.48169,-1.676254 c 0.0321,-0.09634 0.16056,-0.09634 0.18625,0 l 0.4881,1.676254 c 0.0129,0.0578 -0.0321,0.122026 -0.0963,0.122026 h -0.96337 c -0.0642,0 -0.1156,-0.06422 -0.0963,-0.122026 z" />
      <path
         id="path889"
         style="font-style:normal;font-variant:normal;font-weight:normal;font-stretch:normal;font-size:6.42243px;font-family:'Hillstown Sans';-inkscape-font-specification:'Hillstown Sans';fill:#3535b9;fill-opacity:1;stroke:#3535b9;stroke-width:0.21;stroke-miterlimit:4;stroke-dasharray:none;stroke-opacity:1"
         d="M 124.48526,90.445981 H 124.01 c -0.0771,0 -0.1413,0.04496 -0.17341,0.109182 l -1.13035,2.607506 c -0.0321,0.07065 -0.14129,0.07065 -0.1734,0 l -1.13035,-2.607506 c -0.0321,-0.06422 -0.0963,-0.109182 -0.17341,-0.109182 h -0.47526 c -0.0963,0 -0.17982,0.07707 -0.18625,0.173406 l -0.2312,4.33514 c -0.006,0.08349 0.0642,0.154138 0.14771,0.154138 h 0.48168 c 0.0771,0 0.1413,-0.06422 0.1413,-0.141293 l 0.13487,-2.549705 c 0.006,-0.102759 0.14129,-0.122026 0.17983,-0.03211 l 0.81565,1.868927 0.10918,0.250475 c 0.0257,0.06422 0.0963,0.109181 0.16698,0.109181 h 0.21194 c 0.0707,0 0.14129,-0.04496 0.17341,-0.109181 l 0.10276,-0.250475 0.81564,-1.868927 c 0.0385,-0.08991 0.17341,-0.07065 0.17983,0.03211 l 0.13487,2.549705 c 0,0.07707 0.0642,0.141293 0.1413,0.141293 h 0.4881 c 0.0835,0 0.14772,-0.07065 0.14129,-0.154138 l -0.2312,-4.33514 c -0.006,-0.09634 -0.0899,-0.173406 -0.18625,-0.173406 z" />
      <path
         id="path891"
         style="font-style:normal;font-variant:normal;font-weight:normal;font-stretch:normal;font-size:6.42243px;font-family:'Hillstown Sans';-inkscape-font-specification:'Hillstown Sans';fill:#3535b9;fill-opacity:1;stroke:#3535b9;stroke-width:0.21;stroke-miterlimit:4;stroke-dasharray:none;stroke-opacity:1"
         d="m 126.5999,90.625809 v 4.296606 c 0,0.102759 0.0835,0.18625 0.17983,0.18625 h 0.41104 c 0.10276,0 0.18625,-0.08349 0.18625,-0.18625 v -4.296606 c 0,-0.102759 -0.0835,-0.179828 -0.18625,-0.179828 h -0.41104 c -0.0963,0 -0.17983,0.07707 -0.17983,0.179828 z" />
      <path
         id="path893"
         style="font-style:normal;font-variant:normal;font-weight:normal;font-stretch:normal;font-size:6.42243px;font-family:'Hillstown Sans';-inkscape-font-specification:'Hillstown Sans';fill:#3535b9;fill-opacity:1;stroke:#3535b9;stroke-width:0.21;stroke-miterlimit:4;stroke-dasharray:none;stroke-opacity:1"
         d="m 131.55728,90.632232 v 2.671731 c 0,0.09634 -0.13487,0.134871 -0.18625,0.04496 l -1.59276,-2.806602 c -0.0321,-0.06422 -0.0963,-0.09634 -0.16699,-0.09634 h -0.47526 c -0.10276,0 -0.18625,0.08349 -0.18625,0.186251 v 4.341562 c 0,0.07065 0.0578,0.134871 0.12845,0.134871 h 0.51379 c 0.0707,0 0.13488,-0.06422 0.13488,-0.134871 v -2.69742 c 0,-0.09634 0.12844,-0.134871 0.17982,-0.04496 l 1.59277,2.780912 c 0.0321,0.0578 0.0963,0.09634 0.16698,0.09634 h 0.47526 c 0.10276,0 0.18625,-0.08991 0.18625,-0.192672 v -4.283761 c 0,-0.102759 -0.0835,-0.186251 -0.18625,-0.186251 h -0.39819 c -0.10276,0 -0.18625,0.08349 -0.18625,0.18625 z" />
      <path
         id="path895"
         style="font-style:normal;font-variant:normal;font-weight:normal;font-stretch:normal;font-size:6.42243px;font-family:'Hillstown Sans';-inkscape-font-specification:'Hillstown Sans';fill:#3535b9;fill-opacity:1;stroke:#3535b9;stroke-width:0.21;stroke-miterlimit:4;stroke-dasharray:none;stroke-opacity:1"
         d="m 137.95519,92.623185 h -1.89462 c -0.10918,0 -0.1991,0.08991 -0.1991,0.199095 v 0.385346 c 0,0.109181 0.0899,0.199096 0.1991,0.199096 h 1.13677 c 0.0578,0 0.0963,0.0578 0.0835,0.109181 -0.17983,0.584441 -0.59086,0.911985 -1.18815,0.911985 -0.77711,0 -1.41293,-0.73858 -1.41293,-1.63772 0,-0.89914 0.63582,-1.631297 1.41293,-1.631297 0.27617,0 0.53306,0.08349 0.75785,0.250475 0.0835,0.06422 0.19909,0.0578 0.26332,-0.01927 l 0.26974,-0.282586 c 0.0771,-0.08349 0.0707,-0.218363 -0.0257,-0.295432 -0.36608,-0.282587 -0.80923,-0.436725 -1.26522,-0.436725 -1.21384,0 -2.19647,1.08539 -2.19647,2.414833 0,1.335866 0.98263,2.421256 2.19647,2.421256 1.22668,0 2.02949,-0.911985 2.0616,-2.331342 v -0.0578 c 0,-0.109181 -0.0899,-0.199095 -0.19909,-0.199095 z" />
    </g>
    <ellipse
       ry="0.34780315"
       rx="0.37455723"
       cy="104.10034"
       cx="115.76043"
       id="path898"
       style="opacity:0.660131;fill:#3535b9;fill-opacity:1;stroke:#3535b9;stroke-width:0.26;stroke-linecap:round;stroke-linejoin:round;stroke-miterlimit:4;stroke-dasharray:none;stroke-opacity:1" />
    <path
       d="M 61.825162,67.295698 H 154.33924 V 109.3328 H 61.825162 Z"
       style="opacity:1;fill:#2b2b2b;fill-opacity:1;stroke:none;stroke-width:0.136253;stroke-linecap:round;stroke-linejoin:round;stroke-miterlimit:4;stroke-dasharray:none;stroke-opacity:1"
       id="rect900" />
    <g
       style="font-size:17.0409px;line-height:1.25;font-family:'Good Sunday';-inkscape-font-specification:'Good Sunday';fill:#e2142d;fill-opacity:1;stroke-width:0.228226"
       id="text919"
       transform="scale(1.0038175,0.99619702)"
       aria-label="GAMES">
      <path
         id="path1039"
         style="font-size:17.0409px;fill:#e2142d;fill-opacity:1;stroke-width:0.228226"
         d="m 105.58588,99.746673 q -0.50756,0 -0.89864,-0.0083 -0.38275,-0.0083 -0.76551,-0.03328 -0.38275,-0.02496 -0.82375,-0.07489 -0.441,-0.0416 -1.05674,-0.116491 -0.19969,-0.05824 -0.33283,-0.191377 -0.13313,-0.141453 -0.20801,-0.316189 -0.0749,-0.174736 -0.10817,-0.366113 -0.0333,-0.199698 -0.0333,-0.382754 v -7.946318 q -0.0416,-0.307868 -0.0582,-0.54917 -0.025,-0.249622 -0.0416,-0.474283 -0.0166,-0.232981 -0.0166,-0.465962 -0.008,-0.232981 -0.008,-0.507566 0,-0.299547 0.0499,-0.524207 0.0499,-0.22466 0.17473,-0.374434 0.11649,-0.158094 0.31619,-0.249622 0.1997,-0.09985 0.49092,-0.149774 0.0999,0 0.34116,0 0.2413,-0.0083 0.50756,-0.0083 0.27459,0 0.51589,0 0.2413,0 0.34115,0 0.65734,0 1.18155,0 0.5242,0 1.03177,0.01664 0.50756,0.0083 1.05673,0.03328 0.55749,0.02496 1.27308,0.06657 0.49924,0.141453 0.76551,0.432679 0.26626,0.291226 0.26626,0.823754 0,0.191378 -0.0333,0.357793 -0.025,0.166415 -0.0998,0.291226 -0.0749,0.124811 -0.20802,0.199698 -0.13313,0.06657 -0.34947,0.06657 -0.18306,0 -0.30787,-0.10817 -0.12481,-0.108169 -0.22466,-0.232981 -0.0915,-0.133132 -0.18305,-0.241302 -0.0832,-0.108169 -0.19138,-0.108169 h -2.04691 v 8.96977 l 0.11649,0.682302 q 0,0.0083 0.0832,0.01664 0.0832,0 0.13313,0 0.0749,0 0.1997,0.0083 0.13313,0 0.29123,0 0.1997,0 0.40771,-0.0083 0.21634,-0.01664 0.3994,-0.04992 0.18306,-0.0416 0.29955,-0.116491 0.11649,-0.07489 0.11649,-0.191377 v -3.062037 q 0,-0.08321 -0.0999,-0.133132 -0.0999,-0.05824 -0.25794,-0.09985 -0.14978,-0.0416 -0.33283,-0.09153 -0.17474,-0.04993 -0.33283,-0.124811 -0.14978,-0.08321 -0.24963,-0.199698 -0.0999,-0.124812 -0.0999,-0.316189 0,-0.21634 0.0832,-0.341151 0.0832,-0.124811 0.21634,-0.191377 0.14145,-0.06657 0.30787,-0.08321 0.17473,-0.01664 0.34947,-0.01664 0.29955,0 0.62406,0.03328 0.33283,0.03328 0.61573,0.158094 0.28291,0.116491 0.46596,0.341151 0.18306,0.22466 0.18306,0.607415 v 3.752659 q 0,0.366113 -0.13313,0.624056 -0.12481,0.257943 -0.34947,0.441 -0.21634,0.174736 -0.50757,0.282906 -0.29122,0.108169 -0.61573,0.166415 -0.32451,0.05824 -0.66566,0.07489 -0.34116,0.01664 -0.66566,0.01664 -0.25795,0 -0.48261,-0.0083 -0.22466,0 -0.41604,0 z" />
      <path
         id="path1041"
         style="font-size:17.0409px;fill:#e2142d;fill-opacity:1;stroke-width:0.228226"
         d="m 110.85292,87.698225 q 0.0583,-0.232981 0.1997,-0.366113 0.14145,-0.141453 0.32451,-0.208019 0.18305,-0.07489 0.38275,-0.09153 0.20802,-0.02496 0.40772,-0.02496 0.11649,0 0.34947,-0.0083 0.23298,-0.01664 0.55749,-0.03328 0.32451,-0.02496 0.71559,-0.03328 0.39107,-0.01664 0.81543,-0.01664 0.44932,0 0.90696,0.02496 0.45764,0.01664 0.882,0.08321 0.43268,0.05824 0.80711,0.166415 0.38276,0.09985 0.65734,0.257943 0.28291,0.158095 0.441,0.382755 0.16642,0.22466 0.16642,0.532528 0,0.757188 -0.0583,1.497735 -0.0582,0.732226 -0.0582,1.489415 0,0.832075 0.0333,1.66415 0.0416,0.823754 0.0832,1.647509 0.0499,0.823754 0.0832,1.655829 0.0416,0.823755 0.0416,1.65583 0,0.06657 0,0.241302 0,0.166415 -0.008,0.357792 0,0.191377 0,0.366113 0,0.166415 0,0.232981 -0.0666,0.266264 -0.27459,0.424359 -0.19969,0.166415 -0.46596,0.166415 -0.0998,0 -0.2413,-0.04993 -0.13313,-0.04992 -0.25794,-0.133132 -0.11649,-0.07489 -0.20802,-0.183056 -0.0832,-0.10817 -0.0832,-0.224661 v -1.930414 q 0,-0.01664 -0.0499,-0.03328 -0.0416,-0.01664 -0.10817,-0.03328 -0.0583,-0.01664 -0.13314,-0.03328 -0.0666,-0.01664 -0.10817,-0.01664 h -1.58926 q -0.14977,0.04993 -0.19138,0.21634 -0.0416,0.166415 -0.0499,0.399396 -0.008,0.232981 -0.0166,0.507566 0,0.274585 -0.0666,0.540849 -0.0582,0.257943 -0.22466,0.482603 -0.15809,0.21634 -0.47428,0.349472 -0.3994,0.0416 -0.69894,0.06657 -0.29123,0.02496 -0.5575,0.03328 -0.25794,0.01664 -0.5242,0.01664 -0.26627,0.0083 -0.60742,0.0083 -0.0333,0 -0.13313,0 -0.0999,0 -0.20802,-0.0083 -0.10817,0 -0.20802,0 -0.0915,0 -0.13313,0 -0.11649,-0.09153 -0.20802,-0.208018 -0.0915,-0.10817 -0.13313,-0.249623 v -5.450092 q 0,-0.232981 0.0166,-0.707264 0.0166,-0.482604 0.0416,-1.090019 0.0166,-0.607414 0.0416,-1.273075 0.025,-0.66566 0.0499,-1.264754 0.025,-0.607415 0.0499,-1.090018 0.0166,-0.482604 0.025,-0.707264 z m 4.81772,1.239792 q -0.1997,0 -0.34948,0.316188 -0.14977,0.316189 -0.25794,0.815434 -0.10817,0.499245 -0.18306,1.10666 -0.0666,0.607415 -0.10817,1.198188 -0.0333,0.582453 -0.0499,1.081698 -0.0166,0.490924 -0.0166,0.757188 0,0.282906 0.0582,0.457642 0.0666,0.174735 0.19138,0.266264 0.12481,0.09153 0.31619,0.124811 0.1997,0.02496 0.45764,0.02496 h 0.22466 q 0.2413,0 0.45764,-0.01664 0.21634,-0.01664 0.46596,-0.10817 0,-0.06657 0,-0.232981 0,-0.166415 0,-0.357792 0.008,-0.191378 0.008,-0.357793 0,-0.174736 0,-0.241302 0,-0.649018 -0.008,-1.156584 -0.008,-0.507566 -0.0333,-1.015132 -0.025,-0.507566 -0.0749,-1.081697 -0.0416,-0.574132 -0.11649,-1.347962 -0.0416,-0.158094 -0.22466,-0.199698 -0.17473,-0.0416 -0.37443,-0.0416 -0.10817,0 -0.20802,0.0083 -0.0999,0 -0.17473,0 z" />
      <path
         id="path1043"
         style="font-size:17.0409px;fill:#e2142d;fill-opacity:1;stroke-width:0.228226"
         d="m 120.39682,99.738352 q -0.0915,0 -0.18305,-0.05824 -0.0915,-0.05825 -0.16642,-0.149773 -0.0832,-0.08321 -0.13313,-0.183057 -0.0583,-0.09985 -0.0832,-0.174736 -0.0582,-2.238282 -0.0915,-4.459923 -0.0333,-2.22164 -0.0333,-4.459922 0,-0.08321 0,-0.257944 0,-0.174736 0,-0.391075 0,-0.21634 0.008,-0.457641 0,-0.241302 0,-0.457642 0,-0.216339 0,-0.391075 0,-0.174736 0,-0.257943 0.0832,-0.316189 0.22466,-0.499245 0.13313,-0.183057 0.31619,-0.274585 0.18306,-0.09153 0.41604,-0.116491 0.23298,-0.03328 0.51588,-0.03328 0.14978,0 0.30787,0.0083 0.1581,0 0.33283,0 0.69062,0 1.19819,0.249622 0.50757,0.249623 0.882,0.673981 0.37443,0.416038 0.63238,0.965208 0.26626,0.549169 0.46596,1.139943 0.20802,0.590773 0.37443,1.189867 0.17474,0.599094 0.3578,1.123301 0.008,0.01664 0.0499,0.05825 0.0416,0.0416 0.0582,0.05824 0.008,0 0.025,0.0083 0.0166,0 0.0333,0 0.14145,0 0.26626,-0.21634 0.13314,-0.216339 0.25795,-0.565811 0.13313,-0.357792 0.26626,-0.815434 0.13313,-0.465962 0.28291,-0.956886 0.15809,-0.490924 0.33283,-0.973528 0.18305,-0.482604 0.39939,-0.882 0.22466,-0.399396 0.49093,-0.682301 0.26626,-0.282906 0.59909,-0.374434 0.0582,0 0.1997,0 0.14977,0 0.30787,0 0.16641,-0.0083 0.30787,-0.0083 0.14977,0 0.20801,0 0.14146,0 0.29955,0 0.1581,-0.0083 0.33283,-0.0083 0.29955,0 0.60742,0.03328 0.31618,0.03328 0.56581,0.141453 0.25794,0.09985 0.41603,0.307868 0.16642,0.208019 0.16642,0.55749 V 98.83139 q 0,0.316189 -0.14977,0.499246 -0.14146,0.183056 -0.37444,0.274584 -0.22466,0.09985 -0.50756,0.124812 -0.27459,0.02496 -0.53253,0.02496 -0.14145,0 -0.26627,-0.0083 -0.11649,0 -0.21634,0 h -0.34947 q -0.27458,0 -0.58245,-0.02496 -0.30787,-0.02496 -0.56581,-0.133132 -0.25794,-0.09985 -0.43268,-0.307868 -0.16641,-0.208019 -0.16641,-0.565811 v -6.931186 q -0.18306,0.02496 -0.31619,0.291226 -0.13314,0.266264 -0.25795,0.649019 -0.12481,0.374434 -0.25794,0.815433 -0.13313,0.441 -0.32451,0.815434 -0.18306,0.366113 -0.441,0.615736 -0.25794,0.249622 -0.62406,0.249622 -0.19969,0 -0.34115,-0.05824 -0.13313,-0.06657 -0.2413,-0.174736 -0.0999,-0.11649 -0.17473,-0.266264 -0.0749,-0.149773 -0.14978,-0.324509 -0.0333,-0.08321 -0.10817,-0.257943 -0.0666,-0.183057 -0.15809,-0.407717 -0.0915,-0.224661 -0.19138,-0.465962 -0.0999,-0.249623 -0.19138,-0.474283 -0.0832,-0.224661 -0.15809,-0.399396 -0.0666,-0.183057 -0.0999,-0.266264 l -0.17473,-0.116491 v 7.047677 q 0,0.11649 -0.0749,0.241302 -0.0749,0.11649 -0.18306,0.216339 -0.10817,0.09985 -0.2413,0.158094 -0.12481,0.06657 -0.23298,0.06657 z" />
      <path
         id="path1045"
         style="font-size:17.0409px;fill:#e2142d;fill-opacity:1;stroke-width:0.228226"
         d="m 133.44376,88.488696 q 0.0333,-0.44932 0.31619,-0.723905 0.29123,-0.282906 0.71559,-0.432679 0.42435,-0.149774 0.93192,-0.199698 0.50757,-0.04993 0.99017,-0.04993 0.44932,0 0.82375,0.02496 0.38276,0.01664 0.5991,0.01664 0.0582,0 0.20802,0 0.15809,-0.0083 0.37443,-0.0083 0.23298,0 0.50757,0.01664 0.2829,0.0083 0.56581,0.04992 0.2829,0.03328 0.54917,0.09985 0.26626,0.05825 0.47428,0.166415 0.20802,0.10817 0.33283,0.266264 0.12481,0.158095 0.12481,0.374434 0,0.282906 -0.20802,0.457641 -0.1997,0.174736 -0.50756,0.266265 -0.30787,0.09153 -0.67398,0.124811 -0.36612,0.02496 -0.69063,0.02496 -0.25794,0 -0.45764,-0.0083 -0.1997,-0.0083 -0.29122,-0.0083 h -0.025 l -0.11649,0.108169 q -0.0166,0.02496 -0.0333,0.232981 -0.0166,0.199698 -0.0333,0.499245 -0.008,0.299547 -0.025,0.65734 -0.008,0.357792 -0.0166,0.682301 0,0.316189 -0.008,0.557491 0,0.241302 0,0.324509 0.0666,0.191377 0.25795,0.257943 0.19137,0.05825 0.44932,0.07489 0.25794,0.01664 0.53252,0.01664 0.28291,-0.0083 0.51589,0.04992 0.23298,0.05824 0.38276,0.21634 0.15809,0.149773 0.15809,0.465962 0,0.07489 -0.008,0.183056 -0.008,0.10817 -0.0499,0.208019 -0.0333,0.09985 -0.10817,0.166415 -0.0666,0.06657 -0.19969,0.06657 h -1.81393 v 3.860829 q 0,0.04992 0.008,0.158094 0.0167,0.09985 0.0416,0.21634 0.0333,0.10817 0.0749,0.199698 0.0416,0.09153 0.0998,0.10817 0.0333,0 0.10817,0.0083 0.0832,0 0.17474,0 0.0915,0 0.16641,0 0.0832,0 0.11649,0 0.441,0 0.85704,-0.05824 0.42436,-0.06657 0.86536,-0.06657 0.16641,0 0.34115,0.02496 0.18306,0.02496 0.33283,0.09985 0.14977,0.07489 0.24962,0.208019 0.0999,0.124811 0.0999,0.33283 0,0.307868 -0.12481,0.465962 -0.12481,0.149774 -0.45764,0.241302 -0.59909,0.116491 -1.2814,0.183057 -0.67398,0.07489 -1.3646,0.108169 -0.69062,0.03328 -1.38124,0.0416 -0.68231,0.0083 -1.30636,0.0083 h -0.98185 q -0.4826,0 -0.74055,-0.249623 -0.25794,-0.241301 -0.37443,-0.599094 -0.12481,-0.366113 -0.14978,-0.78215 -0.025,-0.416038 -0.0333,-0.757189 0,-0.124811 0,-0.382754 0,-0.266264 0,-0.599095 0,-0.33283 0,-0.698943 -0.008,-0.366113 -0.008,-0.690622 0,-0.33283 0,-0.590773 0,-0.266264 0,-0.391076 0,-0.740547 0,-1.43949 -0.008,-0.698943 0,-1.381245 0.008,-0.690622 0.0333,-1.381244 0.025,-0.698943 0.0915,-1.422849 z" />
      <path
         id="path1047"
         style="font-size:17.0409px;fill:#e2142d;fill-opacity:1;stroke-width:0.228226"
         d="m 142.6798,88.488696 q 0.0333,-0.216339 0.14145,-0.457641 0.0999,-0.241302 0.25794,-0.441 0.16642,-0.199698 0.37444,-0.33283 0.21634,-0.133132 0.47428,-0.133132 h 6.24888 q 0.14978,0 0.30787,0.04992 0.16642,0.04992 0.30787,0.141453 0.14977,0.08321 0.25794,0.208019 0.10817,0.124811 0.14978,0.282906 0,0.03328 0,0.124811 0.008,0.09153 0.008,0.191377 0.008,0.09985 0.008,0.191377 0,0.08321 0,0.116491 0,0.208019 -0.0166,0.424358 -0.008,0.21634 -0.0749,0.391076 -0.0666,0.174735 -0.20802,0.282905 -0.14145,0.10817 -0.3994,0.10817 -0.24962,0 -0.35779,-0.09985 -0.0998,-0.10817 -0.16641,-0.249623 -0.0583,-0.149773 -0.13314,-0.307867 -0.0666,-0.158095 -0.24962,-0.257944 -0.55749,-0.06657 -1.11498,-0.09985 -0.54917,-0.03328 -1.11498,-0.03328 -0.0999,0 -0.20802,0.01664 -0.10817,0.0083 -0.1997,0.04992 -0.0832,0.03328 -0.14145,0.10817 -0.0582,0.06657 -0.0582,0.183057 v 3.062036 l 0.22466,0.232981 q 0.59077,0.02496 1.11498,0.03328 0.53252,0.0083 0.99017,0.06657 0.45764,0.05824 0.82375,0.191377 0.36611,0.124812 0.62406,0.391076 0.25794,0.266264 0.39939,0.707264 0.14146,0.432679 0.14146,1.10666 0,0.549169 -0.008,1.073377 -0.008,0.524207 -0.025,1.048414 -0.0166,0.524208 -0.0416,1.065057 -0.0166,0.540848 -0.0416,1.131622 -0.18306,0.232981 -0.44933,0.374434 -0.25794,0.141452 -0.56581,0.216339 -0.30786,0.07489 -0.64069,0.09985 -0.33283,0.02496 -0.65734,0.02496 -0.31619,0 -0.60742,-0.01664 -0.29123,-0.0083 -0.53253,-0.0083 -0.60741,0 -1.10666,-0.0083 -0.49092,0 -0.97352,-0.01664 -0.48261,-0.0083 -1.00682,-0.03328 -0.5242,-0.02496 -1.18986,-0.06657 -0.19138,-0.05824 -0.29955,-0.174736 -0.11649,-0.10817 -0.17474,-0.249623 -0.0666,-0.141452 -0.0832,-0.307867 -0.0166,-0.174736 -0.0166,-0.341151 0,-0.208019 0.025,-0.382755 0.025,-0.183056 0.0999,-0.316188 0.0749,-0.133132 0.21634,-0.208019 0.14145,-0.07489 0.37443,-0.07489 0.19138,0 0.31619,0.10817 0.12481,0.10817 0.23298,0.241302 0.10817,0.124811 0.23298,0.232981 0.13313,0.10817 0.33283,0.10817 h 2.27157 l 0.10817,-0.10817 q 0,-0.01664 0,-0.141453 0.008,-0.133132 0.008,-0.291226 0.008,-0.166415 0.008,-0.33283 0,-0.166415 0,-0.266264 0,-0.857038 0.0166,-1.43117 0.025,-0.574132 -0.0166,-0.931924 -0.0333,-0.366113 -0.16642,-0.55749 -0.13313,-0.199698 -0.441,-0.291227 -0.29955,-0.09153 -0.81543,-0.11649 -0.51589,-0.03328 -1.31468,-0.07489 -0.1997,-0.0083 -0.41604,-0.04992 -0.21634,-0.0416 -0.40771,-0.124812 -0.19138,-0.09153 -0.33284,-0.241301 -0.14977,-0.149774 -0.20801,-0.374434 -0.0499,-0.432679 -0.0749,-0.798792 -0.0333,-0.366113 -0.0416,-0.715585 -0.008,-0.349472 -0.008,-0.707264 0,-0.366113 0,-0.790471 0,-0.08321 0,-0.282906 0,-0.199698 0.008,-0.424358 0,-0.232981 0,-0.432679 0,-0.199698 0,-0.282906 z" />
    </g>
    <g
       style="font-size:18.4254px;line-height:1.25;font-family:'Good Sunday';-inkscape-font-specification:'Good Sunday';fill:#e2142d;fill-opacity:1;stroke-width:0.287895"
       id="text923"
       transform="scale(0.99875624,1.0012453)"
       aria-label="COMIC">
      <path
         id="path1028"
         style="font-size:18.4254px;fill:#e2142d;fill-opacity:1;stroke-width:0.287895"
         d="m 106.72382,81.776761 q 0,0.03599 0.009,0.161942 0.018,0.116958 0.045,0.242913 0.036,0.125955 0.081,0.233916 0.045,0.09897 0.10796,0.09897 h 3.0679 q 0.31489,0 0.47683,0.206925 0.16194,0.19793 0.16194,0.47683 0,0.233916 -0.17094,0.404855 -0.17094,0.170938 -0.45883,0.287896 -0.2789,0.116959 -0.65677,0.188933 -0.36887,0.07197 -0.78272,0.107961 -0.40485,0.04498 -0.8187,0.05398 -0.41386,0.01799 -0.78272,0.01799 -1.06162,0 -2.10525,-0.03599 -1.04363,-0.02699 -2.10525,-0.107961 -0.20692,-0.06298 -0.38686,-0.233916 -0.17094,-0.170939 -0.23391,-0.377865 -0.027,-2.501104 -0.13496,-5.002208 -0.11695,-2.510101 -0.11695,-5.011205 0,-0.701749 0.018,-1.196571 0.009,-0.494823 0.09,-0.827704 0.072,-0.332881 0.24291,-0.53081 0.16194,-0.197929 0.47683,-0.296893 0.31489,-0.107962 0.79172,-0.134952 0.48582,-0.02699 1.18757,-0.02699 0.69275,0 1.25055,0.009 0.5668,0 1.1246,0.01799 0.5578,0.009 1.16958,0.03599 0.61178,0.01799 1.3945,0.06298 0.50382,0.179935 0.50382,0.737735 0,0.287897 -0.18893,0.458836 -0.17994,0.170939 -0.47683,0.269903 -0.2879,0.08997 -0.64777,0.125955 -0.35987,0.02699 -0.71074,0.02699 -0.31489,0 -0.59379,-0.009 -0.2699,-0.01799 -0.44984,-0.01799 -0.099,0 -0.13495,0.009 -0.17094,0.449839 -0.25191,0.935665 -0.081,0.476829 -0.10796,0.971652 -0.027,0.494822 -0.027,0.998642 0.009,0.494823 0.009,0.980649 0,1.430487 0.036,2.842981 0.045,1.403497 0.099,2.842982 z" />
      <path
         id="path1030"
         style="font-size:18.4254px;fill:#e2142d;fill-opacity:1;stroke-width:0.287895"
         d="m 116.23341,70.467812 q 0.12595,0 0.44084,0 0.31489,0 0.66576,0.009 0.35088,0 0.66576,0 0.31489,0 0.44085,0 0.25191,0.01799 0.5488,0.116958 0.30589,0.09896 0.5578,0.269903 0.26091,0.170939 0.43185,0.413852 0.17993,0.242913 0.17993,0.5578 v 11.542865 q 0,0.161942 -0.10796,0.287897 -0.10796,0.125955 -0.2699,0.215923 -0.15295,0.08997 -0.32389,0.143948 -0.16194,0.06298 -0.2789,0.08997 -0.10796,0 -0.37786,0 -0.26991,0 -0.5758,0 -0.30589,0.009 -0.57579,0.009 -0.2699,0 -0.37786,0 -0.45884,0 -1.08861,0.05398 -0.62978,0.06298 -1.29554,0.06298 -0.49482,0 -0.97165,-0.06298 -0.46783,-0.06298 -0.8547,-0.242913 -0.38686,-0.170938 -0.65676,-0.485826 -0.2699,-0.314887 -0.35088,-0.80971 -0.054,-2.303175 -0.09,-4.570362 -0.045,-2.276185 -0.045,-4.57936 0,-0.09897 0,-0.350874 0,-0.260907 0.009,-0.539807 0,-0.287897 0,-0.539807 0,-0.251909 0,-0.350874 0.072,-0.422848 0.2879,-0.683755 0.20692,-0.260906 0.51281,-0.404855 0.30589,-0.152945 0.68376,-0.206926 0.37786,-0.05398 0.77372,-0.05398 0.5578,0 1.08861,0.05398 0.53981,0.05398 0.95366,0.05398 z m 0.11696,6.657615 q 0,0.206926 -0.009,0.692752 0,0.476829 0.009,1.079613 0.009,0.593787 0.027,1.232559 0.027,0.638771 0.081,1.169581 0.054,0.53081 0.14395,0.872687 0.099,0.341878 0.24291,0.341878 h 1.71838 V 72.321148 l -0.24291,-0.242913 h -1.71838 l -0.12596,0.125955 q 0,0 -0.009,0.179935 -0.009,0.179936 -0.018,0.485826 -0.009,0.296894 -0.027,0.683755 -0.009,0.386862 -0.018,0.80971 -0.009,0.422849 -0.018,0.854694 -0.009,0.422849 -0.018,0.800713 -0.009,0.368868 -0.018,0.665762 0,0.287897 0,0.440842 z" />
      <path
         id="path1032"
         style="font-size:18.4254px;fill:#e2142d;fill-opacity:1;stroke-width:0.287895"
         d="m 122.1353,84.115923 q -0.099,0 -0.19793,-0.06298 -0.099,-0.06298 -0.17994,-0.161942 -0.09,-0.08997 -0.14395,-0.197929 -0.063,-0.107961 -0.09,-0.188932 -0.063,-2.420133 -0.099,-4.822273 -0.036,-2.402139 -0.036,-4.822272 0,-0.08997 0,-0.2789 0,-0.188933 0,-0.422849 0,-0.233916 0.009,-0.494823 0,-0.260906 0,-0.494822 0,-0.233916 0,-0.422849 0,-0.188932 0,-0.2789 0.09,-0.341877 0.24291,-0.539807 0.14395,-0.197929 0.34188,-0.296893 0.19793,-0.09897 0.44984,-0.125955 0.25191,-0.03599 0.5578,-0.03599 0.16194,0 0.33288,0.009 0.17094,0 0.35987,0 0.74673,0 1.29554,0.269903 0.5488,0.269903 0.95366,0.728739 0.40485,0.449839 0.68375,1.043626 0.2879,0.593787 0.50382,1.232559 0.22492,0.638771 0.40486,1.286539 0.18893,0.647768 0.38686,1.214565 0.009,0.01799 0.054,0.06298 0.045,0.04498 0.063,0.06298 0.009,0 0.027,0.009 0.018,0 0.036,0 0.15295,0 0.2879,-0.233916 0.14395,-0.233916 0.2789,-0.611781 0.14395,-0.386861 0.2879,-0.881684 0.14394,-0.503819 0.30589,-1.034629 0.17094,-0.53081 0.35987,-1.052623 0.19793,-0.521813 0.43184,-0.953659 0.24292,-0.431845 0.53081,-0.737735 0.2879,-0.305891 0.64777,-0.404855 0.063,0 0.21592,0 0.16195,0 0.33288,0 0.17994,-0.009 0.33289,-0.009 0.16194,0 0.22491,0 0.15295,0 0.32389,0 0.17094,-0.009 0.35987,-0.009 0.32388,0 0.65676,0.03599 0.34188,0.03599 0.61179,0.152945 0.2789,0.107962 0.44983,0.332881 0.17994,0.22492 0.17994,0.602784 v 11.551862 q 0,0.341878 -0.16194,0.539807 -0.15295,0.197929 -0.40486,0.296893 -0.24291,0.107962 -0.5488,0.134952 -0.29689,0.02699 -0.57579,0.02699 -0.15295,0 -0.2879,-0.009 -0.12596,0 -0.23392,0 h -0.37786 q -0.2969,0 -0.62978,-0.02699 -0.33288,-0.02699 -0.61178,-0.143948 -0.2789,-0.107961 -0.46783,-0.332881 -0.17994,-0.224919 -0.17994,-0.611781 v -7.494315 q -0.19792,0.02699 -0.34187,0.314887 -0.14395,0.287897 -0.2789,0.701749 -0.13495,0.404855 -0.2789,0.881684 -0.14395,0.476829 -0.35088,0.881684 -0.19793,0.395858 -0.47683,0.665762 -0.2789,0.269903 -0.67476,0.269903 -0.21592,0 -0.36886,-0.06298 -0.14395,-0.07197 -0.26091,-0.188932 -0.10796,-0.125955 -0.18893,-0.287897 -0.081,-0.161942 -0.16194,-0.350874 -0.036,-0.08997 -0.11696,-0.2789 -0.072,-0.197929 -0.17094,-0.440842 -0.099,-0.242913 -0.20693,-0.50382 -0.10796,-0.269903 -0.20692,-0.512816 -0.09,-0.242913 -0.17094,-0.431845 -0.072,-0.197929 -0.10796,-0.287897 l -0.18893,-0.125955 v 7.62027 q 0,0.125955 -0.081,0.260907 -0.081,0.125955 -0.19792,0.233916 -0.11696,0.107961 -0.26091,0.170939 -0.13495,0.07197 -0.25191,0.07197 z" />
      <path
         id="path1034"
         style="font-size:18.4254px;fill:#e2142d;fill-opacity:1;stroke-width:0.287895"
         d="m 136.97998,84.115923 q -0.17094,0 -0.33288,-0.07197 -0.15295,-0.06298 -0.26991,-0.179936 -0.12595,-0.107961 -0.18893,-0.260906 -0.072,-0.161942 -0.072,-0.350875 V 71.214544 q 0,-0.08097 0.036,-0.188932 0.036,-0.107961 0.10796,-0.197929 0.063,-0.09896 0.15295,-0.161942 0.09,-0.06298 0.19793,-0.06298 h 2.94194 q 0.44984,0 0.69276,0.224919 0.25191,0.215923 0.29689,0.638771 -0.018,1.277542 0,2.564082 0.018,1.277542 0.045,2.564081 0.027,1.277543 0.054,2.564082 0.027,1.277542 0.027,2.564081 0,0.08997 0,0.323884 0,0.233916 -0.009,0.50382 0,0.260906 0,0.494822 0,0.233917 0,0.332881 -0.009,0.134952 -0.072,0.269904 -0.063,0.134951 -0.16194,0.233916 -0.099,0.107961 -0.22492,0.170938 -0.12595,0.06298 -0.2789,0.06298 z" />
      <path
         id="path1036"
         style="font-size:18.4254px;fill:#e2142d;fill-opacity:1;stroke-width:0.287895"
         d="m 146.70549,81.776761 q 0,0.03599 0.009,0.161942 0.018,0.116958 0.045,0.242913 0.036,0.125955 0.081,0.233916 0.045,0.09897 0.10796,0.09897 h 3.0679 q 0.31489,0 0.47683,0.206925 0.16194,0.19793 0.16194,0.47683 0,0.233916 -0.17094,0.404855 -0.17094,0.170938 -0.45884,0.287896 -0.2789,0.116959 -0.65676,0.188933 -0.36887,0.07197 -0.78272,0.107961 -0.40485,0.04498 -0.81871,0.05398 -0.41385,0.01799 -0.78272,0.01799 -1.06162,0 -2.10524,-0.03599 -1.04363,-0.02699 -2.10525,-0.107961 -0.20692,-0.06298 -0.38686,-0.233916 -0.17094,-0.170939 -0.23392,-0.377865 -0.027,-2.501104 -0.13495,-5.002208 -0.11696,-2.510101 -0.11696,-5.011205 0,-0.701749 0.018,-1.196571 0.009,-0.494823 0.09,-0.827704 0.072,-0.332881 0.24291,-0.53081 0.16194,-0.197929 0.47683,-0.296893 0.31489,-0.107962 0.79171,-0.134952 0.48583,-0.02699 1.18758,-0.02699 0.69275,0 1.25055,0.009 0.5668,0 1.1246,0.01799 0.5578,0.009 1.16958,0.03599 0.61178,0.01799 1.3945,0.06298 0.50382,0.179935 0.50382,0.737735 0,0.287897 -0.18893,0.458836 -0.17994,0.170939 -0.47683,0.269903 -0.2879,0.08997 -0.64777,0.125955 -0.35987,0.02699 -0.71075,0.02699 -0.31488,0 -0.59378,-0.009 -0.26991,-0.01799 -0.44984,-0.01799 -0.099,0 -0.13495,0.009 -0.17094,0.449839 -0.25191,0.935665 -0.081,0.476829 -0.10796,0.971652 -0.027,0.494822 -0.027,0.998642 0.009,0.494823 0.009,0.980649 0,1.430487 0.036,2.842981 0.045,1.403497 0.099,2.842982 z" />
    </g>
    <path
       id="path925"
       d="m 69.012172,73.397014 20.25026,-0.103291 c 0,0 2.1732,0.619774 1.97564,3.202167 -0.19757,2.58239 -1.77808,2.479093 -1.77808,2.479093 l -7.40863,0.103291 c 0,0 -1.97564,0.619773 -1.28416,3.821939"
       style="fill:none;stroke:#000000;stroke-width:1.69627;stroke-linecap:round;stroke-linejoin:round;stroke-miterlimit:4;stroke-dasharray:none;stroke-opacity:1" />
    <path
       id="path927"
       d="m 80.450342,81.525876 -10.94196,0.09915 c 0,0 -3.7459,1.487273 -3.94306,5.15588 -0.19715,3.668606 0,5.84994 0,5.84994 0,0 0.88719,4.362669 5.61885,4.858427 4.73166,0.495758 6.60461,-4.263517 6.60461,-4.263517 l 0.19715,-0.793213 h 4.63309 c 0,0 -0.0986,4.362667 6.30888,4.957577 6.40746,0.594911 6.60461,-6.643153 6.60461,-6.643153 l 0.0986,-4.362666 c 0,0 -0.78861,-4.362667 -5.22454,-5.05673 z"
       style="fill:none;stroke:#000000;stroke-width:1.486;stroke-linecap:round;stroke-linejoin:round;stroke-miterlimit:4;stroke-dasharray:none;stroke-opacity:1" />
    <path
       id="path930"
       d="m 65.613062,88.466482 c 0,0 1.2121,-3.371152 4.84839,-3.569454 3.63629,-0.198303 19.49456,0 19.49456,0 0,0 4.24234,-0.09915 5.45444,3.966062"
       style="fill:none;stroke:#000000;stroke-width:1.378;stroke-linecap:round;stroke-linejoin:round;stroke-miterlimit:4;stroke-dasharray:none;stroke-opacity:1" />
    <path
       style="fill:none;stroke:#000000;stroke-width:1.428;stroke-linecap:round;stroke-linejoin:round;stroke-miterlimit:4;stroke-dasharray:none;stroke-opacity:1"
       d="m 65.712212,85.264294 c 0,0 1.2121,-3.620536 4.84839,-3.833507 3.63629,-0.212973 19.49456,0 19.49456,0 0,0 4.24234,-0.106485 5.45444,4.259454"
       id="path932" />
    <path
       id="path934"
       d="m 71.911532,88.069876 0.0991,5.651637 v -2.875394 h 2.8754 -5.84994"
       style="fill:none;stroke:#000000;stroke-width:1.565;stroke-linecap:round;stroke-linejoin:round;stroke-miterlimit:4;stroke-dasharray:none;stroke-opacity:1" />
    <path
       id="path936"
       d="m 78.380752,88.962239 h 4.43745"
       style="fill:none;stroke:#000000;stroke-width:1.675;stroke-linecap:round;stroke-linejoin:round;stroke-miterlimit:4;stroke-dasharray:none;stroke-opacity:1" />
    <ellipse
       ry="0.862028"
       rx="0.86202812"
       cy="88.466484"
       cx="89.263054"
       id="ellipse938"
       style="opacity:0.660131;fill:#000000;fill-opacity:1;stroke:#000000;stroke-width:0.435672;stroke-linecap:round;stroke-linejoin:round;stroke-miterlimit:4;stroke-dasharray:none;stroke-opacity:1" />
    <ellipse
       style="opacity:0.660131;fill:#000000;fill-opacity:1;stroke:#000000;stroke-width:0.435672;stroke-linecap:round;stroke-linejoin:round;stroke-miterlimit:4;stroke-dasharray:none;stroke-opacity:1"
       id="ellipse940"
       cx="91.741844"
       cy="90.746971"
       rx="0.86202812"
       ry="0.862028" />
    <ellipse
       style="opacity:0.660131;fill:#000000;fill-opacity:1;stroke:#000000;stroke-width:0.435672;stroke-linecap:round;stroke-linejoin:round;stroke-miterlimit:4;stroke-dasharray:none;stroke-opacity:1"
       id="ellipse942"
       cx="86.784264"
       cy="90.846123"
       rx="0.86202812"
       ry="0.862028" />
    <ellipse
       ry="0.862028"
       rx="0.86202812"
       cy="93.324913"
       cx="89.263054"
       id="ellipse944"
       style="opacity:0.660131;fill:#000000;fill-opacity:1;stroke:#000000;stroke-width:0.435672;stroke-linecap:round;stroke-linejoin:round;stroke-miterlimit:4;stroke-dasharray:none;stroke-opacity:1" />
    <g
       aria-label="SITE
"
       transform="matrix(0.9961383,0,0,1.0038767,7.1655816,12.119801)"
       id="g958"
       style="font-size:10.1819px;line-height:1.25;font-family:'Good Sunday';-inkscape-font-specification:'Good Sunday';fill:#3535b9;fill-opacity:1;stroke:#3535b9;stroke-width:0.15;stroke-miterlimit:4;stroke-dasharray:none;stroke-opacity:1">
      <path
         d="m 96.502559,93.774131 c 0.714775,0 1.246274,-0.281023 1.545625,-0.812522 0.122183,-0.232149 0.201603,-0.60481 0.04276,-0.965252 -0.103856,-0.232149 -0.342115,-0.5315 -0.879723,-0.653684 -0.189385,-0.04276 -0.372661,-0.0672 -0.555937,-0.09775 -0.366551,-0.04887 -0.714775,-0.103856 -0.90416,-0.274913 -0.122184,-0.103856 -0.14662,-0.323787 -0.07331,-0.525391 0.122184,-0.311568 0.427643,-0.494844 0.83085,-0.494844 0.409315,0 0.647574,0.250477 0.763648,0.427643 0.05498,0.09164 0.171058,0.128293 0.274914,0.09164 l 0.158839,-0.06109 0.183276,-0.0672 c 0.09164,-0.03055 0.134402,-0.140511 0.08553,-0.22604 -0.158839,-0.305459 -0.592591,-0.910269 -1.466205,-0.910269 -0.849178,0 -1.350131,0.500953 -1.527298,0.971361 -0.189385,0.507063 -0.07942,1.038562 0.274914,1.35624 0.360442,0.311569 0.83085,0.384879 1.289039,0.45208 0.164948,0.02444 0.336005,0.04887 0.500953,0.08553 0.128293,0.03055 0.299351,0.09775 0.360443,0.232149 0.04276,0.09775 0.02444,0.22604 -0.01222,0.299351 -0.103856,0.183275 -0.305459,0.427643 -0.891941,0.427643 -0.488736,0 -0.733103,-0.293241 -0.843069,-0.488735 -0.05498,-0.09164 -0.164948,-0.134403 -0.268804,-0.103857 l -0.354333,0.09775 c -0.09164,0.03055 -0.140511,0.134403 -0.103856,0.22604 0.189385,0.421535 0.67812,1.014126 1.570062,1.014126 z"
         style="font-style:normal;font-variant:normal;font-weight:normal;font-stretch:normal;font-size:6.10919px;font-family:'Hillstown Sans';-inkscape-font-specification:'Hillstown Sans';fill:#3535b9;fill-opacity:1;stroke:#3535b9;stroke-width:0.15;stroke-miterlimit:4;stroke-dasharray:none;stroke-opacity:1"
         id="path950" />
      <path
         d="m 98.660248,89.412169 v 4.087048 c 0,0.09775 0.07942,0.177167 0.171057,0.177167 h 0.390989 c 0.09775,0 0.177166,-0.07942 0.177166,-0.177167 v -4.087048 c 0,-0.09775 -0.07942,-0.171057 -0.177166,-0.171057 h -0.390989 c -0.09164,0 -0.171057,0.07331 -0.171057,0.171057 z"
         style="font-style:normal;font-variant:normal;font-weight:normal;font-stretch:normal;font-size:6.10919px;font-family:'Hillstown Sans';-inkscape-font-specification:'Hillstown Sans';fill:#3535b9;fill-opacity:1;stroke:#3535b9;stroke-width:0.15;stroke-miterlimit:4;stroke-dasharray:none;stroke-opacity:1"
         id="path952" />
      <path
         d="m 102.74567,89.222784 h -2.871316 c -0.07331,0 -0.128293,0.06109 -0.128293,0.128293 v 0.488736 c 0,0.07331 0.05498,0.128293 0.128293,0.128293 h 0.977466 c 0.0489,0 0.0916,0.04276 0.0916,0.09164 v 3.47002 c 0,0.07942 0.0611,0.146621 0.14662,0.146621 h 0.44597 c 0.0794,0 0.14052,-0.0672 0.14052,-0.146621 v -3.47002 c 0,-0.04887 0.0428,-0.09164 0.0916,-0.09164 h 0.97747 c 0.0733,0 0.1283,-0.05498 0.1283,-0.128293 v -0.488736 c 0,-0.0672 -0.055,-0.128293 -0.1283,-0.128293 z"
         style="font-style:normal;font-variant:normal;font-weight:normal;font-stretch:normal;font-size:6.10919px;font-family:'Hillstown Sans';-inkscape-font-specification:'Hillstown Sans';fill:#3535b9;fill-opacity:1;stroke:#3535b9;stroke-width:0.15;stroke-miterlimit:4;stroke-dasharray:none;stroke-opacity:1"
         id="path954" />
      <path
         d="m 106.14754,89.809267 v -0.421534 c 0,-0.09164 -0.0733,-0.164949 -0.15884,-0.164949 h -2.47422 c -0.0855,0 -0.15884,0.07331 -0.15884,0.164949 l -0.006,4.123703 c 0,0.09164 0.0733,0.164948 0.16495,0.164948 h 2.47422 c 0.0855,0 0.15884,-0.07331 0.15884,-0.164948 v -0.421534 c 0,-0.08553 -0.0733,-0.158839 -0.15884,-0.158839 h -1.74112 c -0.0916,0 -0.16495,-0.07331 -0.16495,-0.164948 v -0.733103 c 0,-0.09164 0.0733,-0.164948 0.16495,-0.164948 h 1.16685 c 0.0855,0 0.15884,-0.07331 0.15884,-0.158839 v -0.421534 c 0,-0.09164 -0.0733,-0.164948 -0.15884,-0.164948 h -1.16685 c -0.0916,0 -0.16495,-0.07331 -0.16495,-0.158839 v -0.83085 c 0,-0.09164 0.0733,-0.164948 0.16495,-0.164948 h 1.74112 c 0.0855,0 0.15884,-0.07331 0.15884,-0.158839 z"
         style="font-style:normal;font-variant:normal;font-weight:normal;font-stretch:normal;font-size:6.10919px;font-family:'Hillstown Sans';-inkscape-font-specification:'Hillstown Sans';fill:#3535b9;fill-opacity:1;stroke:#3535b9;stroke-width:0.15;stroke-miterlimit:4;stroke-dasharray:none;stroke-opacity:1"
         id="path956" />
    </g>
    <g
       aria-label="GAMING"
       transform="matrix(1.0114063,0,0,0.98872235,7.0853216,12.173309)"
       id="g972"
       style="font-size:6.42243px;line-height:1.6;font-family:'Good Sunday';-inkscape-font-specification:'Good Sunday';letter-spacing:1.0704px;fill:#3535b9;fill-opacity:1;stroke:#3535b9;stroke-width:0.15;stroke-miterlimit:4;stroke-dasharray:none;stroke-opacity:1">
      <path
         d="m 113.57423,92.623185 h -1.89462 c -0.10918,0 -0.1991,0.08991 -0.1991,0.199095 v 0.385346 c 0,0.109181 0.0899,0.199096 0.1991,0.199096 h 1.13677 c 0.0578,0 0.0963,0.0578 0.0835,0.109181 -0.17983,0.584441 -0.59086,0.911985 -1.18815,0.911985 -0.77711,0 -1.41293,-0.73858 -1.41293,-1.63772 0,-0.89914 0.63582,-1.631297 1.41293,-1.631297 0.27617,0 0.53306,0.08349 0.75785,0.250475 0.0835,0.06422 0.19909,0.0578 0.26332,-0.01927 l 0.26974,-0.282586 c 0.0771,-0.08349 0.0707,-0.218363 -0.0257,-0.295432 -0.36608,-0.282587 -0.80923,-0.436725 -1.26522,-0.436725 -1.21384,0 -2.19647,1.08539 -2.19647,2.414833 0,1.335866 0.98263,2.421256 2.19647,2.421256 1.22669,0 2.02949,-0.911985 2.0616,-2.331342 v -0.0578 c 0,-0.109181 -0.0899,-0.199095 -0.19909,-0.199095 z"
         style="font-style:normal;font-variant:normal;font-weight:normal;font-stretch:normal;font-size:6.42243px;font-family:'Hillstown Sans';-inkscape-font-specification:'Hillstown Sans';fill:#3535b9;fill-opacity:1;stroke:#3535b9;stroke-width:0.15;stroke-miterlimit:4;stroke-dasharray:none;stroke-opacity:1"
         id="path960" />
      <path
         d="m 118.13953,95.108665 h 0.48169 c 0.0963,0 0.16056,-0.08991 0.13487,-0.179828 l -1.26522,-4.386519 c -0.0193,-0.0578 -0.0707,-0.09634 -0.13487,-0.09634 h -0.86061 c -0.0642,0 -0.12203,0.03853 -0.13487,0.09634 l -1.26522,4.386519 c -0.0257,0.08991 0.0385,0.179828 0.13487,0.179828 h 0.48168 c 0.0642,0 0.11561,-0.04496 0.13488,-0.102758 l 0.21194,-0.745002 c 0.0193,-0.0578 0.0706,-0.102759 0.13487,-0.102759 h 1.46431 c 0.0578,0 0.1156,0.04496 0.13487,0.102759 l 0.21194,0.745002 c 0.0193,0.0578 0.0707,0.102758 0.13487,0.102758 z m -1.79186,-1.843237 0.48169,-1.676254 c 0.0321,-0.09634 0.16056,-0.09634 0.18625,0 l 0.4881,1.676254 c 0.0129,0.0578 -0.0321,0.122026 -0.0963,0.122026 h -0.96337 c -0.0642,0 -0.1156,-0.06422 -0.0963,-0.122026 z"
         style="font-style:normal;font-variant:normal;font-weight:normal;font-stretch:normal;font-size:6.42243px;font-family:'Hillstown Sans';-inkscape-font-specification:'Hillstown Sans';fill:#3535b9;fill-opacity:1;stroke:#3535b9;stroke-width:0.15;stroke-miterlimit:4;stroke-dasharray:none;stroke-opacity:1"
         id="path962" />
      <path
         d="M 124.48526,90.445981 H 124.01 c -0.0771,0 -0.1413,0.04496 -0.17341,0.109182 l -1.13035,2.607506 c -0.0321,0.07065 -0.14129,0.07065 -0.1734,0 l -1.13035,-2.607506 c -0.0321,-0.06422 -0.0963,-0.109182 -0.17341,-0.109182 h -0.47526 c -0.0963,0 -0.17982,0.07707 -0.18625,0.173406 l -0.2312,4.33514 c -0.006,0.08349 0.0642,0.154138 0.14771,0.154138 h 0.48168 c 0.0771,0 0.1413,-0.06422 0.1413,-0.141293 l 0.13487,-2.549705 c 0.006,-0.102759 0.14129,-0.122026 0.17983,-0.03211 l 0.81565,1.868927 0.10918,0.250475 c 0.0257,0.06422 0.0963,0.109181 0.16698,0.109181 h 0.21194 c 0.0707,0 0.14129,-0.04496 0.17341,-0.109181 l 0.10276,-0.250475 0.81564,-1.868927 c 0.0385,-0.08991 0.17341,-0.07065 0.17983,0.03211 l 0.13487,2.549705 c 0,0.07707 0.0642,0.141293 0.1413,0.141293 h 0.4881 c 0.0835,0 0.14772,-0.07065 0.14129,-0.154138 l -0.2312,-4.33514 c -0.006,-0.09634 -0.0899,-0.173406 -0.18625,-0.173406 z"
         style="font-style:normal;font-variant:normal;font-weight:normal;font-stretch:normal;font-size:6.42243px;font-family:'Hillstown Sans';-inkscape-font-specification:'Hillstown Sans';fill:#3535b9;fill-opacity:1;stroke:#3535b9;stroke-width:0.15;stroke-miterlimit:4;stroke-dasharray:none;stroke-opacity:1"
         id="path964" />
      <path
         d="m 126.5999,90.625809 v 4.296606 c 0,0.102759 0.0835,0.18625 0.17983,0.18625 h 0.41104 c 0.10276,0 0.18625,-0.08349 0.18625,-0.18625 v -4.296606 c 0,-0.102759 -0.0835,-0.179828 -0.18625,-0.179828 h -0.41104 c -0.0963,0 -0.17983,0.07707 -0.17983,0.179828 z"
         style="font-style:normal;font-variant:normal;font-weight:normal;font-stretch:normal;font-size:6.42243px;font-family:'Hillstown Sans';-inkscape-font-specification:'Hillstown Sans';fill:#3535b9;fill-opacity:1;stroke:#3535b9;stroke-width:0.15;stroke-miterlimit:4;stroke-dasharray:none;stroke-opacity:1"
         id="path966" />
      <path
         d="m 131.55728,90.632232 v 2.671731 c 0,0.09634 -0.13487,0.134871 -0.18625,0.04496 l -1.59276,-2.806602 c -0.0321,-0.06422 -0.0963,-0.09634 -0.16699,-0.09634 h -0.47526 c -0.10276,0 -0.18625,0.08349 -0.18625,0.186251 v 4.341562 c 0,0.07065 0.0578,0.134871 0.12845,0.134871 h 0.51379 c 0.0707,0 0.13488,-0.06422 0.13488,-0.134871 v -2.69742 c 0,-0.09634 0.12844,-0.134871 0.17982,-0.04496 l 1.59277,2.780912 c 0.0321,0.0578 0.0963,0.09634 0.16698,0.09634 h 0.47526 c 0.10276,0 0.18625,-0.08991 0.18625,-0.192672 v -4.283761 c 0,-0.102759 -0.0835,-0.186251 -0.18625,-0.186251 h -0.39819 c -0.10276,0 -0.18625,0.08349 -0.18625,0.18625 z"
         style="font-style:normal;font-variant:normal;font-weight:normal;font-stretch:normal;font-size:6.42243px;font-family:'Hillstown Sans';-inkscape-font-specification:'Hillstown Sans';fill:#3535b9;fill-opacity:1;stroke:#3535b9;stroke-width:0.15;stroke-miterlimit:4;stroke-dasharray:none;stroke-opacity:1"
         id="path968" />
      <path
         d="m 137.95519,92.623185 h -1.89462 c -0.10918,0 -0.1991,0.08991 -0.1991,0.199095 v 0.385346 c 0,0.109181 0.0899,0.199096 0.1991,0.199096 h 1.13677 c 0.0578,0 0.0963,0.0578 0.0835,0.109181 -0.17983,0.584441 -0.59086,0.911985 -1.18815,0.911985 -0.77711,0 -1.41293,-0.73858 -1.41293,-1.63772 0,-0.89914 0.63582,-1.631297 1.41293,-1.631297 0.27617,0 0.53306,0.08349 0.75785,0.250475 0.0835,0.06422 0.19909,0.0578 0.26332,-0.01927 l 0.26974,-0.282586 c 0.0771,-0.08349 0.0707,-0.218363 -0.0257,-0.295432 -0.36608,-0.282587 -0.80923,-0.436725 -1.26522,-0.436725 -1.21384,0 -2.19647,1.08539 -2.19647,2.414833 0,1.335866 0.98263,2.421256 2.19647,2.421256 1.22668,0 2.02949,-0.911985 2.0616,-2.331342 v -0.0578 c 0,-0.109181 -0.0899,-0.199095 -0.19909,-0.199095 z"
         style="font-style:normal;font-variant:normal;font-weight:normal;font-stretch:normal;font-size:6.42243px;font-family:'Hillstown Sans';-inkscape-font-specification:'Hillstown Sans';fill:#3535b9;fill-opacity:1;stroke:#3535b9;stroke-width:0.15;stroke-miterlimit:4;stroke-dasharray:none;stroke-opacity:1"
         id="path970" />
    </g>
    <path
       d="m 116.13499,104.10034 a 0.37455723,0.34780315 0 0 1 -0.37456,0.3478 0.37455723,0.34780315 0 0 1 -0.37456,-0.3478 0.37455723,0.34780315 0 0 1 0.37456,-0.3478 0.37455723,0.34780315 0 0 1 0.37456,0.3478"
       style="opacity:0.660131;fill:#3535b9;fill-opacity:1;stroke:#3535b9;stroke-width:0.26;stroke-linecap:round;stroke-linejoin:round;stroke-miterlimit:4;stroke-dasharray:none;stroke-opacity:1"
       id="ellipse974" />
    <ellipse
       ry="3.4878008"
       rx="14.481956"
       cy="87.663193"
       cx="80.939186"
       id="path982"
       style="opacity:1;fill:#e2142d;fill-opacity:1;stroke:#e2142d;stroke-width:0;stroke-linecap:round;stroke-linejoin:round;stroke-miterlimit:4;stroke-dasharray:none;stroke-opacity:1" />
    <ellipse
       ry="5.8864713"
       rx="6.2202368"
       cy="91.04435"
       cx="71.500862"
       id="path984"
       style="opacity:1;fill:#e2142d;fill-opacity:1;stroke:#e2142d;stroke-width:0;stroke-linecap:round;stroke-linejoin:round;stroke-miterlimit:4;stroke-dasharray:none;stroke-opacity:1" />
    <rect
       y="89.045761"
       x="74.657402"
       height="3.1845138"
       width="8.6436806"
       id="rect986"
       style="opacity:1;fill:#e2142d;fill-opacity:1;stroke:#e2142d;stroke-width:0;stroke-linecap:round;stroke-linejoin:round;stroke-miterlimit:4;stroke-dasharray:none;stroke-opacity:1" />
    <ellipse
       style="opacity:1;fill:#e2142d;fill-opacity:1;stroke:#e2142d;stroke-width:0;stroke-linecap:round;stroke-linejoin:round;stroke-miterlimit:4;stroke-dasharray:none;stroke-opacity:1"
       id="ellipse988"
       cx="89.040016"
       cy="90.926262"
       rx="6.0890255"
       ry="5.9606671" />
    <ellipse
       ry="1.4406133"
       rx="13.875385"
       cy="83.05584"
       cx="80.798973"
       id="path990"
       style="opacity:1;fill:#b51024;fill-opacity:1;stroke:#e2142d;stroke-width:0;stroke-linecap:round;stroke-linejoin:round;stroke-miterlimit:4;stroke-dasharray:none;stroke-opacity:1" />
    <rect
       transform="matrix(0.94524582,-0.32635921,0.30361551,0.95279464,0,0)"
       y="100.8154"
       x="36.889412"
       height="3.0826814"
       width="6.1361957"
       id="rect992"
       style="opacity:1;fill:#b51024;fill-opacity:1;stroke:#e2142d;stroke-width:0;stroke-linecap:round;stroke-linejoin:round;stroke-miterlimit:4;stroke-dasharray:none;stroke-opacity:1" />
    <rect
       style="opacity:1;fill:#b51024;fill-opacity:1;stroke:#e2142d;stroke-width:0;stroke-linecap:round;stroke-linejoin:round;stroke-miterlimit:4;stroke-dasharray:none;stroke-opacity:1"
       id="rect994"
       width="5.9172273"
       height="2.9007781"
       x="-117.11354"
       y="49.517952"
       transform="matrix(-0.94824319,-0.31754505,-0.31212756,0.9500402,0,0)" />
    <path
       style="fill:none;stroke:#000000;stroke-width:1.49382;stroke-linecap:round;stroke-linejoin:round;stroke-miterlimit:4;stroke-dasharray:none;stroke-opacity:1"
       d="m 80.379012,81.42469 -10.99056,0.09975 c 0,0 -3.76253,1.496316 -3.96057,5.18723 -0.19802,3.690912 0,5.885509 0,5.885509 0,0 0.89113,4.389196 5.64381,4.887968 4.75267,0.498772 6.63394,-4.289441 6.63394,-4.289441 l 0.19802,-0.798036 h 4.65367 c 0,0 -0.099,4.389194 6.3369,4.987721 6.43592,0.598528 6.63394,-6.683545 6.63394,-6.683545 l 0.099,-4.389193 c 0,0 -0.79211,-4.389193 -5.24774,-5.087477 z"
       id="path996" />
    <path
       style="fill:none;stroke:#000000;stroke-width:1.378;stroke-linecap:round;stroke-linejoin:round;stroke-miterlimit:4;stroke-dasharray:none;stroke-opacity:1"
       d="m 65.613062,88.466482 c 0,0 1.2121,-3.371152 4.84839,-3.569454 3.63629,-0.198303 19.49456,0 19.49456,0 0,0 4.24234,-0.09915 5.45444,3.966062"
       id="path998" />
    <path
       style="fill:none;stroke:#000000;stroke-width:1.69627;stroke-linecap:round;stroke-linejoin:round;stroke-miterlimit:4;stroke-dasharray:none;stroke-opacity:1"
       d="m 69.012172,73.397014 20.25026,-0.103291 c 0,0 2.1732,0.619774 1.97564,3.202167 -0.19757,2.58239 -1.77808,2.479093 -1.77808,2.479093 l -7.40863,0.103291 c 0,0 -1.97564,0.619773 -1.28416,3.821939"
       id="path1000" />
    <ellipse
       ry="4.0702181"
       rx="4.2685208"
       cy="90.934601"
       cx="89.267677"
       id="ellipse1002"
       style="opacity:1;fill:#2b2b2b;fill-opacity:1;stroke:#2b2b2b;stroke-width:0.36499;stroke-linecap:round;stroke-linejoin:round;stroke-miterlimit:4;stroke-dasharray:none;stroke-opacity:1" />
    <ellipse
       style="opacity:1;fill:#000000;fill-opacity:1;stroke:#000000;stroke-width:0.435672;stroke-linecap:round;stroke-linejoin:round;stroke-miterlimit:4;stroke-dasharray:none;stroke-opacity:1"
       id="ellipse1006"
       cx="89.263054"
       cy="93.324913"
       rx="0.86202812"
       ry="0.862028" />
    <ellipse
       ry="0.862028"
       rx="0.86202812"
       cy="90.746971"
       cx="91.741844"
       id="ellipse1008"
       style="opacity:1;fill:#000000;fill-opacity:1;stroke:#000000;stroke-width:0.435672;stroke-linecap:round;stroke-linejoin:round;stroke-miterlimit:4;stroke-dasharray:none;stroke-opacity:1" />
    <ellipse
       ry="0.862028"
       rx="0.86202812"
       cy="90.846123"
       cx="86.784264"
       id="ellipse1010"
       style="opacity:1;fill:#000000;fill-opacity:1;stroke:#000000;stroke-width:0.435672;stroke-linecap:round;stroke-linejoin:round;stroke-miterlimit:4;stroke-dasharray:none;stroke-opacity:1" />
    <ellipse
       style="opacity:1;fill:#000000;fill-opacity:1;stroke:#000000;stroke-width:0.435672;stroke-linecap:round;stroke-linejoin:round;stroke-miterlimit:4;stroke-dasharray:none;stroke-opacity:1"
       id="ellipse1014"
       cx="89.263054"
       cy="88.466484"
       rx="0.86202812"
       ry="0.862028" />
    <ellipse
       style="opacity:1;fill:#2b2b2b;fill-opacity:1;stroke:#2b2b2b;stroke-width:0.36499;stroke-linecap:round;stroke-linejoin:round;stroke-miterlimit:4;stroke-dasharray:none;stroke-opacity:1"
       id="ellipse1020"
       cx="71.991524"
       cy="90.910027"
       rx="4.2685208"
       ry="4.0702181" />
    <path
       style="fill:none;stroke:#000000;stroke-width:1.565;stroke-linecap:round;stroke-linejoin:round;stroke-miterlimit:4;stroke-dasharray:none;stroke-opacity:1"
       d="m 71.911532,88.069876 0.0991,5.651637 v -2.875394 h 2.8754 -5.84994"
       id="path1022" />
    <path
       style="fill:none;stroke:#000000;stroke-width:1.675;stroke-linecap:round;stroke-linejoin:round;stroke-miterlimit:4;stroke-dasharray:none;stroke-opacity:1"
       d="m 78.380752,88.962239 h 4.43745"
       id="path1024" />
    <path
       id="path1026"
       d="m 65.778452,84.848389 c 0,0 1.20541,-3.372871 4.82165,-3.571274 3.61623,-0.198404 19.38703,0 19.38703,0 0,0 4.21894,-0.0992 5.42435,3.968084"
       style="fill:none;stroke:#000000;stroke-width:1.37454;stroke-linecap:round;stroke-linejoin:round;stroke-miterlimit:4;stroke-dasharray:none;stroke-opacity:1" />
  </g>
</svg>
